<svg width="75" height="75" viewBox="0 0 75 75" fill="none" xmlns="http://www.w3.org/2000/svg">
<g filter="url(#filter0_d_100_308)">
<rect x="10" y="10" width="55" height="55" rx="27.5" fill="url(#paint0_linear_100_308)" shape-rendering="crispEdges"/>
<path d="M25 36.1111V25H36.1111V36.1111H25ZM27.7778 33.3333H33.3333V27.7778H27.7778V33.3333ZM25 50V38.8889H36.1111V50H25ZM27.7778 47.2222H33.3333V41.6667H27.7778V47.2222ZM38.8889 36.1111V25H50V36.1111H38.8889ZM41.6667 33.3333H47.2222V27.7778H41.6667V33.3333ZM47.2222 50V47.2222H50V50H47.2222ZM38.8889 41.6667V38.8889H41.6667V41.6667H38.8889ZM41.6667 44.4444V41.6667H44.4444V44.4444H41.6667ZM38.8889 47.2222V44.4444H41.6667V47.2222H38.8889ZM41.6667 50V47.2222H44.4444V50H41.6667ZM44.4444 47.2222V44.4444H47.2222V47.2222H44.4444ZM44.4444 41.6667V38.8889H47.2222V41.6667H44.4444ZM47.2222 44.4444V41.6667H50V44.4444H47.2222Z" fill="white"/>
</g>
<defs>
<filter id="filter0_d_100_308" x="0" y="0" width="75" height="75" filterUnits="userSpaceOnUse" color-interpolation-filters="sRGB">
<feFlood flood-opacity="0" result="BackgroundImageFix"/>
<feColorMatrix in="SourceAlpha" type="matrix" values="0 0 0 0 0 0 0 0 0 0 0 0 0 0 0 0 0 0 127 0" result="hardAlpha"/>
<feOffset/>
<feGaussianBlur stdDeviation="5"/>
<feComposite in2="hardAlpha" operator="out"/>
<feColorMatrix type="matrix" values="0 0 0 0 0 0 0 0 0 0 0 0 0 0 0 0 0 0 0.15 0"/>
<feBlend mode="normal" in2="BackgroundImageFix" result="effect1_dropShadow_100_308"/>
<feBlend mode="normal" in="SourceGraphic" in2="effect1_dropShadow_100_308" result="shape"/>
</filter>
<linearGradient id="paint0_linear_100_308" x1="37.5" y1="10" x2="37.5" y2="65" gradientUnits="userSpaceOnUse">
<stop stop-color="#FEBA72"/>
<stop offset="1" stop-color="#EC9E56"/>
</linearGradient>
</defs>
</svg>
